<svg xmlns="http://www.w3.org/2000/svg" version="1.1" xmlns:xlink="http://www.w3.org/1999/xlink" viewBox="0 0 200 200"><rect width="200" height="200" fill="url('#gradient')"></rect><defs><linearGradient id="gradient" gradientTransform="rotate(82 0.5 0.5)"><stop offset="0%" stop-color="#472027"></stop><stop offset="100%" stop-color="#192025"></stop></linearGradient></defs><g><g fill="#7c7df2" transform="matrix(3.386678915939366,0,0,3.386678915939366,24.371474760620217,118.37253826169393)" stroke="#c06a3e" stroke-width="0.1"><path d="M4.50-14.22L4.50-2.64L10.47-2.64L10.47 0L1.07 0L1.07-14.22L4.50-14.22ZM18.31 0L16.01-3.94L15.08-3.01L15.08 0L11.79 0L11.79-15.01L15.08-15.01L15.08-7.04L15.41-7.48L17.89-10.57L21.84-10.57L18.13-6.22L22.08 0L18.31 0ZM32.51-5.36L32.51-5.21Q32.51-2.74 31.40-1.27Q30.29 0.20 28.41 0.20L28.41 0.20Q26.95 0.20 26.02-0.87L26.02-0.87L26.02 4.06L22.72 4.06L22.72-10.57L25.80-10.57L25.90-9.59Q26.85-10.76 28.39-10.76L28.39-10.76Q30.34-10.76 31.43-9.32Q32.51-7.88 32.51-5.36L32.51-5.36ZM29.22-5.06L29.22-5.41Q29.22-8.22 27.58-8.22L27.58-8.22Q26.41-8.22 26.02-7.38L26.02-7.38L26.02-3.22Q26.45-2.34 27.60-2.34L27.60-2.34Q29.17-2.34 29.22-5.06L29.22-5.06ZM33.57-5.24L33.57-5.36Q33.57-6.96 34.10-8.19Q34.63-9.42 35.62-10.09Q36.60-10.76 37.91-10.76L37.91-10.76Q39.56-10.76 40.49-9.65L40.49-9.65L40.61-10.57L43.59-10.57L43.59-0.40Q43.59 1.00 42.94 2.03Q42.29 3.06 41.06 3.61Q39.83 4.16 38.21 4.16L38.21 4.16Q37.05 4.16 35.96 3.72Q34.87 3.28 34.30 2.58L34.30 2.58L35.67 0.64Q36.59 1.73 38.10 1.73L38.10 1.73Q40.28 1.73 40.28-0.52L40.28-0.52L40.28-0.85Q39.34 0.20 37.89 0.20L37.89 0.20Q35.96 0.20 34.77-1.28Q33.57-2.76 33.57-5.24L33.57-5.24ZM36.88-5.16L36.88-5.16Q36.88-3.86 37.36-3.10Q37.85-2.34 38.73-2.34L38.73-2.34Q39.79-2.34 40.28-3.06L40.28-3.06L40.28-7.50Q39.80-8.22 38.75-8.22L38.75-8.22Q37.87-8.22 37.37-7.44Q36.88-6.65 36.88-5.16Z"></path></g></g></svg>